<svg width="257" height="251" viewBox="0 0 257 251" fill="none" xmlns="http://www.w3.org/2000/svg">
<path d="M207.265 172.287H206.611V231.819H207.265V172.287Z" fill="#231F20"/>
<path d="M220.944 72.5819H220.29V222.912H220.944V72.5819Z" fill="#231F20"/>
<path d="M214.111 121.083H213.457V231.819H214.111V121.083Z" fill="#231F20"/>
<path d="M234.637 100.032H233.983V214.33H234.637V100.032Z" fill="#231F20"/>
<path d="M227.789 70.3253H227.136V224.663H227.789V70.3253Z" fill="#231F20"/>
<path d="M235.954 235.495C244.521 226.932 244.521 213.048 235.954 204.485C227.387 195.922 213.498 195.922 204.931 204.485C196.364 213.048 196.364 226.932 204.931 235.495C213.498 244.058 227.387 244.058 235.954 235.495Z" fill="#CCCCCC"/>
<path d="M206.461 196.159H234.443C235.928 196.159 237.146 197.777 237.146 199.766V205.423C237.146 207.412 235.928 209.03 234.443 209.03H206.461C204.976 209.03 203.758 207.412 203.758 205.423V199.766C203.758 197.777 204.976 196.159 206.461 196.159Z" fill="#CCCCCC"/>
<path d="M239.033 204.042H198.071V204.695H239.033V204.042Z" fill="#425AC2"/>
<path d="M213.962 68.7364C213.306 71.5526 212.458 74.3205 211.422 77.0204L212.492 74.5115L212.224 75.1202C210.884 77.5939 210.508 80.4766 211.17 83.2112C211.534 84.5407 212.157 85.7853 213.003 86.8738C213.85 87.9623 214.902 88.8732 216.101 89.5544C217.3 90.2357 218.621 90.6738 219.99 90.8438C221.358 91.0138 222.747 90.9123 224.076 90.5451C225.398 90.2129 226.637 89.6134 227.718 88.7835C228.798 87.9536 229.697 86.911 230.359 85.7202C231.948 82.039 233.24 78.2361 234.22 74.3482C234.587 73.0186 234.688 71.6298 234.518 70.2611C234.347 68.8924 233.909 67.5707 233.228 66.3713C232.547 65.1719 231.636 64.1185 230.547 63.271C229.458 62.4236 228.213 61.7988 226.883 61.4322C224.197 60.692 221.326 61.0488 218.903 62.4242C216.48 63.7996 214.703 66.0808 213.962 68.7661V68.7364Z" fill="#FFC1C1"/>
<path d="M180.828 167.432C182.994 173.308 186.71 178.489 191.581 182.427C195.932 186.168 203.21 184.075 206.195 179.74C209.685 174.647 207.829 168.858 203.492 165.131C205.794 167.106 203.388 164.879 202.943 164.359C202.497 163.84 200.685 161.093 202.215 163.498C201.175 161.839 200.342 160.059 199.735 158.198C197.908 152.765 190.348 151.087 185.685 153.344C180.056 156.06 179.001 161.954 180.828 167.373V167.432Z" fill="#FFC1C1"/>
<path d="M204.071 127.111C203.903 130.844 203.406 134.555 202.586 138.201C201.691 142.842 201.595 147.601 202.304 152.274C203.165 157.931 209.388 161.509 214.75 160.365C217.455 159.753 219.814 158.111 221.328 155.789C222.842 153.466 223.391 150.645 222.859 147.925C222.666 146.603 222.637 146.44 222.74 147.316C222.74 146.574 222.74 145.831 222.74 145.059C222.874 143.184 223.127 141.32 223.498 139.477C224.304 135.829 224.8 132.119 224.983 128.387C225.115 125.617 224.159 122.905 222.32 120.828C220.481 118.751 217.903 117.474 215.136 117.268C209.656 116.941 204.072 121.38 204.012 127.111H204.071Z" fill="#FFC1C1"/>
<path d="M232.185 106.118C232.883 107.603 233.581 108.954 234.25 110.394C234.532 111.018 234.814 111.656 235.081 112.28C233.819 109.399 235.081 112.28 235.319 112.933C236.125 115.536 237.837 117.764 240.146 119.213C241.358 119.916 242.698 120.372 244.087 120.553C245.477 120.734 246.889 120.637 248.24 120.267C253.335 118.871 257.671 112.695 255.577 107.351C254.003 103.327 252.265 99.3784 250.32 95.4739C247.75 90.3521 240.651 88.9417 235.943 91.7031C230.774 94.6722 229.601 100.952 232.185 106.074V106.118Z" fill="#FFC1C1"/>
<path d="M237.429 135.291C236.687 136.449 235.944 137.577 235.053 138.661L236.702 136.538C236.107 137.29 235.498 138.033 234.875 138.765C232.959 140.769 231.862 143.417 231.8 146.188C231.8 148.973 232.906 151.644 234.875 153.615C236.844 155.586 239.514 156.695 242.301 156.699C243.683 156.716 245.055 156.45 246.332 155.92C247.609 155.389 248.764 154.603 249.727 153.611C251.848 151.175 253.798 148.596 255.564 145.891C256.97 143.487 257.363 140.624 256.657 137.93C255.951 135.236 254.203 132.933 251.799 131.528C249.394 130.122 246.529 129.729 243.834 130.435C241.139 131.14 238.835 132.887 237.429 135.291Z" fill="#FFC1C1"/>
<path d="M229.141 185.574C231.603 185.623 234.063 185.404 236.478 184.921L233.686 185.292C234.808 185.136 235.941 185.077 237.072 185.114C242.805 185.411 247.587 180.126 247.587 174.618C247.545 171.845 246.423 169.198 244.46 167.238C242.497 165.278 239.847 164.16 237.072 164.122C234.62 164.13 232.173 164.369 229.765 164.835L232.557 164.449C231.426 164.613 230.281 164.657 229.141 164.582C223.423 164.152 218.641 169.689 218.641 175.078C218.641 181.135 223.438 185.159 229.141 185.574Z" fill="#FFC1C1"/>
<path d="M190.6 94.3908C190.603 94.6233 190.537 94.8515 190.41 95.0464C190.283 95.2412 190.1 95.3938 189.886 95.4848C189.672 95.5759 189.436 95.6013 189.207 95.5577C188.979 95.5141 188.768 95.4036 188.603 95.2402C188.437 95.0768 188.324 94.8678 188.277 94.6399C188.231 94.412 188.253 94.1755 188.342 93.9603C188.43 93.7451 188.58 93.5611 188.773 93.4315C188.967 93.302 189.194 93.2328 189.427 93.2328C189.735 93.2328 190.032 93.3543 190.251 93.571C190.471 93.7878 190.596 94.0823 190.6 94.3908Z" fill="white"/>
<path d="M221.642 80.9849C221.642 81.2169 221.573 81.4437 221.444 81.6365C221.315 81.8294 221.132 81.9797 220.917 82.0685C220.703 82.1573 220.467 82.1805 220.239 82.1352C220.012 82.09 219.803 81.9783 219.639 81.8143C219.474 81.6502 219.363 81.4412 219.317 81.2137C219.272 80.9862 219.295 80.7504 219.384 80.5361C219.473 80.3218 219.623 80.1386 219.816 80.0098C220.009 79.8809 220.236 79.8121 220.468 79.8121C220.623 79.8101 220.776 79.8391 220.92 79.8973C221.063 79.9556 221.193 80.0419 221.302 80.1512C221.412 80.2605 221.498 80.3906 221.556 80.5338C221.615 80.677 221.644 80.8304 221.642 80.9849Z" fill="white"/>
<path d="M236.701 101.977C236.695 102.209 236.62 102.434 236.486 102.623C236.353 102.813 236.166 102.958 235.949 103.041C235.733 103.125 235.496 103.142 235.27 103.091C235.043 103.04 234.837 102.923 234.677 102.755C234.518 102.587 234.411 102.375 234.372 102.146C234.332 101.918 234.361 101.683 234.455 101.471C234.55 101.259 234.705 101.08 234.901 100.956C235.097 100.832 235.325 100.768 235.557 100.774C235.711 100.778 235.863 100.812 236.004 100.875C236.145 100.937 236.272 101.027 236.378 101.139C236.484 101.25 236.568 101.382 236.623 101.526C236.678 101.669 236.705 101.823 236.701 101.977Z" fill="white"/>
<path d="M221.447 133.435C221.45 133.668 221.383 133.897 221.256 134.092C221.128 134.288 220.945 134.44 220.73 134.531C220.515 134.621 220.278 134.646 220.049 134.601C219.82 134.556 219.609 134.444 219.444 134.279C219.279 134.114 219.167 133.904 219.122 133.675C219.078 133.446 219.102 133.209 219.193 132.994C219.283 132.78 219.436 132.597 219.631 132.469C219.827 132.341 220.055 132.274 220.289 132.277C220.596 132.277 220.891 132.399 221.108 132.616C221.325 132.834 221.447 133.128 221.447 133.435Z" fill="white"/>
<path d="M248.597 143.619C248.6 143.853 248.533 144.081 248.406 144.276C248.278 144.472 248.095 144.624 247.88 144.715C247.665 144.805 247.427 144.83 247.199 144.785C246.97 144.74 246.759 144.628 246.594 144.463C246.429 144.299 246.317 144.088 246.272 143.859C246.228 143.63 246.252 143.393 246.343 143.179C246.433 142.964 246.586 142.781 246.781 142.653C246.976 142.525 247.205 142.458 247.439 142.461C247.746 142.461 248.04 142.583 248.258 142.801C248.475 143.018 248.597 143.312 248.597 143.619Z" fill="white"/>
<path d="M241.394 175.197C241.397 175.43 241.331 175.659 241.203 175.854C241.075 176.049 240.892 176.202 240.677 176.292C240.462 176.383 240.225 176.407 239.996 176.362C239.767 176.318 239.556 176.206 239.391 176.041C239.227 175.876 239.114 175.665 239.07 175.437C239.025 175.208 239.049 174.971 239.14 174.756C239.231 174.541 239.383 174.358 239.579 174.23C239.774 174.102 240.003 174.036 240.236 174.039C240.543 174.039 240.838 174.161 241.055 174.378C241.272 174.595 241.394 174.89 241.394 175.197Z" fill="white"/>
<path d="M193.69 169.066C193.73 169.291 193.703 169.523 193.611 169.732C193.519 169.942 193.368 170.12 193.175 170.243C192.983 170.367 192.758 170.431 192.529 170.427C192.3 170.423 192.078 170.351 191.89 170.221C191.702 170.091 191.556 169.908 191.472 169.695C191.388 169.483 191.369 169.25 191.417 169.026C191.465 168.803 191.578 168.598 191.742 168.439C191.906 168.279 192.113 168.172 192.338 168.13C192.641 168.078 192.953 168.147 193.205 168.322C193.458 168.497 193.632 168.764 193.69 169.066Z" fill="white"/>
<path d="M43.5954 105.703H40.2092V179.562H43.5954V105.703Z" fill="#CCCCCC"/>
<path d="M28.3418 112.428H24.9556V177.602H28.3418V112.428Z" fill="#CCCCCC"/>
<path d="M59.6949 117.134H56.3086V182.308H59.6949V117.134Z" fill="#CCCCCC"/>
<path d="M68.8588 175.212H16.8767C19.1963 179.449 22.5151 183.057 26.5454 185.722V242.137H59.2198V185.722C63.2392 183.053 66.5476 179.446 68.8588 175.212Z" fill="#C4C4C4"/>
<path d="M84.3779 185.915H21.2568V186.569H84.3779V185.915Z" fill="#FFC1C1"/>
<path d="M63.0653 78.0895C57.1244 65.3814 38.3069 63.5851 30.0046 79.5741C22.9499 93.1284 6.24149 88.3629 1.48885 101.041C-6.99165 123.904 22.9649 132.678 35.6485 120.801C44.3963 112.606 55.5502 117.476 65.3525 125.255C81.1699 137.963 105.735 110.854 90.1999 98.1464C78.1252 88.2738 70.3724 93.752 63.0653 78.0895Z" fill="#FFC1C1"/>
<path d="M20.0244 159.698C17.2619 162.014 20.7373 168.205 27.6732 166.928C34.6091 165.651 38.1736 162.385 34.3417 158.852C30.5099 155.318 25.2671 155.304 20.0244 159.698Z" fill="#FFC1C1"/>
<path d="M39.5099 144.361C44.2477 135.691 51.4955 142.966 56.0105 145.178C65.0702 149.632 66.5554 143.797 71.3229 146.173C76.0904 148.548 74.1299 154.828 63.8969 156.565C54.8817 158.213 34.6236 153.224 39.5099 144.361Z" fill="#FFC1C1"/>
<path d="M215.536 8.52185H56.2483C48.4067 8.52185 42.0498 14.8761 42.0498 22.7145V134.786C42.0498 142.625 48.4067 148.979 56.2483 148.979H215.536C223.378 148.979 229.735 142.625 229.735 134.786V22.7145C229.735 14.8761 223.378 8.52185 215.536 8.52185Z" fill="#A4B8EA"/>
<path d="M175.585 30.6124H56.635V34.4872H175.585V30.6124Z" fill="white"/>
<path d="M175.585 61.4323H56.635V65.307H175.585V61.4323Z" fill="white"/>
<path d="M175.585 92.2375H56.635V96.1123H175.585V92.2375Z" fill="white"/>
<path d="M175.585 123.043H56.635V126.918H175.585V123.043Z" fill="white"/>
<path d="M200.819 23.1003H188.626C186.87 23.1003 185.447 24.5227 185.447 26.2774V38.4659C185.447 40.2205 186.87 41.6429 188.626 41.6429H200.819C202.574 41.6429 203.997 40.2205 203.997 38.4659V26.2774C203.997 24.5227 202.574 23.1003 200.819 23.1003Z" fill="white"/>
<path d="M200.819 53.6831H188.626C186.87 53.6831 185.447 55.1055 185.447 56.8601V69.0486C185.447 70.8032 186.87 72.2257 188.626 72.2257H200.819C202.574 72.2257 203.997 70.8032 203.997 69.0486V56.8601C203.997 55.1055 202.574 53.6831 200.819 53.6831Z" fill="white"/>
<path d="M200.819 84.2803H188.626C186.87 84.2803 185.447 85.7027 185.447 87.4573V99.6458C185.447 101.4 186.87 102.823 188.626 102.823H200.819C202.574 102.823 203.997 101.4 203.997 99.6458V87.4573C203.997 85.7027 202.574 84.2803 200.819 84.2803Z" fill="white"/>
<path d="M200.819 114.878H188.626C186.87 114.878 185.447 116.3 185.447 118.055V130.243C185.447 131.998 186.87 133.42 188.626 133.42H200.819C202.574 133.42 203.997 131.998 203.997 130.243V118.055C203.997 116.3 202.574 114.878 200.819 114.878Z" fill="white"/>
<path d="M193.289 89.2605L184.699 97.8475L187.881 101.028L196.471 92.4412L193.289 89.2605Z" fill="#FE958E"/>
<path d="M186.679 105.495C188.669 104.931 192.07 101.71 191.535 100.151C191.001 98.5919 189.753 94.2124 186.827 95.697L181.599 99.2897L184.154 106.163L186.679 105.495Z" fill="#FFB3B6"/>
<path d="M96.6903 145.728H138.662L143.237 194.408L137.533 235.353H120.765L127.612 198.639C127.612 198.639 121.968 174.128 121.166 165.354H115.612L112.641 199.292L98.324 235.085H81.0957L96.0666 196.352C96.0666 196.352 96.6606 157.308 96.7646 151.518C96.6367 149.59 96.6119 147.658 96.6903 145.728Z" fill="#FFC1C1"/>
<path d="M96.6913 145.727H138.663L143.906 90.0107C144.366 85.4678 139.97 81.5634 134.386 81.5634H100.969C95.3695 81.5634 90.9881 85.4678 91.4485 90.0107L96.6913 145.727Z" fill="#425AC2"/>
<path d="M117.885 87.4131C110.459 87.4131 110.459 82.3506 110.459 81.1481V72.9829C110.459 71.1123 113.236 71.2756 114.915 71.2756H120.246C121.895 71.2756 124.702 72.7602 124.702 74.6456V81.2075C124.686 82.0702 124.495 82.9206 124.138 83.7066C123.782 84.4927 123.27 85.1978 122.631 85.7787C121.993 86.3597 121.243 86.8043 120.427 87.0853C119.611 87.3664 118.746 87.4779 117.885 87.4131Z" fill="#E98896"/>
<path d="M129.291 71.2603C127.152 78.4903 121.107 77.3917 113.874 75.2539C110.488 74.1542 107.665 71.777 106.007 68.6284C104.348 65.4797 103.984 61.8082 104.992 58.3953C106.001 54.9825 108.302 52.0978 111.406 50.3553C114.51 48.6128 118.172 48.1501 121.612 49.0657C128.845 51.2035 131.429 64.0304 129.291 71.2603Z" fill="#FFB3B6"/>
<path d="M144.099 88.2144L155.283 110.483L181.333 98.7699C181.333 98.0424 187.497 104.248 186.546 105.926C185.061 108.642 167.001 119.287 157.451 126.829C152.104 131.045 139.005 113.69 138.262 112.443C137.059 110.454 135.44 98.1166 135.292 91.243C135.254 90.4746 135.517 89.7217 136.024 89.1429C136.531 88.5642 137.243 88.2047 138.01 88.1402L140.49 83.6864C141.797 83.4934 143.624 86.9228 144.099 88.2144Z" fill="#425AC2"/>
<path d="M94.9081 83.3894C94.9081 83.3894 75.4965 104.085 68.6646 110.602C64.8773 114.195 68.6646 116.897 70.8181 119.51C76.759 126.932 96.1706 140.294 96.1706 140.294L95.1012 128.966L83.4126 115.308C83.4126 115.308 99.8538 102.615 100.403 101.694C101.889 99.2003 100.641 88.2292 100.641 88.2292L94.9081 83.3894Z" fill="#425AC2"/>
<path d="M133.42 235.248H125.266V241.484H141.796C142.895 241.484 143.282 239.034 142.301 238.514L133.42 235.248Z" fill="#FE958E"/>
<path d="M94.6707 235.248H86.5317V241.484H103.047C104.146 241.484 104.532 239.034 103.567 238.514L94.6707 235.248Z" fill="#FE958E"/>
<path d="M141.143 97.6119H140.49V128.031H141.143V97.6119Z" fill="#FC6262"/>
<path d="M93.5194 99.0011L92.8672 99.0426L94.7766 129.045L95.4288 129.003L93.5194 99.0011Z" fill="#FC6262"/>
<path d="M193.273 89.2538L196.467 92.4457L197.759 89.1202L196.897 88.17L193.273 89.2538Z" fill="#FEE2E3"/>
<path d="M196.941 88.1556L197.803 89.1206C197.803 89.1206 199.021 87.9626 198.545 87.5024C198.07 87.0421 196.941 88.1556 196.941 88.1556Z" fill="#0E24A5"/>
<mask id="mask0_1_477" style="mask-type:alpha" maskUnits="userSpaceOnUse" x="81" y="145" width="63" height="91">
<path d="M96.6903 145.728H138.662L143.237 194.408L137.533 235.353H120.765L127.612 198.639C127.612 198.639 121.968 174.128 121.166 165.354H115.612L112.641 199.292L98.324 235.085H81.0957L96.0666 196.352C96.0666 196.352 96.6606 157.308 96.7646 151.518C96.6367 149.59 96.6119 147.658 96.6903 145.728Z" fill="#FFC1C1"/>
</mask>
<g mask="url(#mask0_1_477)">
<path d="M149.148 148.637H97.166V150.122H149.148V148.637Z" fill="#03053F"/>
<path d="M149.089 154.249H73.3433V155.912H149.089V154.249Z" fill="#03053F"/>
<path d="M149.089 160.084H73.3433V161.747H149.089V160.084Z" fill="#03053F"/>
<path d="M149.089 165.918H73.3433V167.581H149.089V165.918Z" fill="#03053F"/>
<path d="M149.089 171.753H73.3433V173.415H149.089V171.753Z" fill="#03053F"/>
<path d="M149.089 177.587H73.3433V179.25H149.089V177.587Z" fill="#03053F"/>
<path d="M149.089 183.422H73.3433V185.084H149.089V183.422Z" fill="#03053F"/>
<path d="M149.089 189.256H73.3433V190.919H149.089V189.256Z" fill="#03053F"/>
<path d="M149.089 195.09H73.3433V196.753H149.089V195.09Z" fill="#03053F"/>
<path d="M149.089 200.925H73.3433V202.588H149.089V200.925Z" fill="#03053F"/>
<path d="M149.089 206.759H73.3433V208.422H149.089V206.759Z" fill="#03053F"/>
<path d="M149.089 212.594H73.3433V214.256H149.089V212.594Z" fill="#03053F"/>
<path d="M149.089 218.428H73.3433V220.091H149.089V218.428Z" fill="#03053F"/>
<path d="M149.089 224.263H73.3433V225.925H149.089V224.263Z" fill="#03053F"/>
<path d="M149.089 230.097H73.3433V231.76H149.089V230.097Z" fill="#03053F"/>
</g>
<path d="M117.944 65.9603C120.231 64.9805 116.459 61.3878 119.429 59.3391C123.662 56.3699 127.256 54.8853 128.118 49.4665C129.083 43.5282 122.474 39.7128 121.39 39.7128C120.306 39.7128 123.662 41.4497 119.905 44.0478C116.801 46.2301 103.196 49.7931 102.439 58.8046C101.681 67.8161 104.384 70.6813 107.86 72.4777C111.335 74.2741 106.775 68.7811 109.597 65.3071C112.419 61.8332 116.429 66.6284 117.944 65.9603Z" fill="#FE958E"/>
<path d="M188.942 29.0221L187.42 30.5443L194.593 37.7142L196.115 36.192L188.942 29.0221Z" fill="#FE958E"/>
<path d="M200.369 29.0881L193.197 36.2579L194.719 37.7801L201.892 30.6103L200.369 29.0881Z" fill="#FE958E"/>
<path d="M188.951 59.4498L187.428 60.9719L194.601 68.1418L196.124 66.6196L188.951 59.4498Z" fill="#FE958E"/>
<path d="M200.352 59.5056L193.179 66.6754L194.702 68.1976L201.875 61.0277L200.352 59.5056Z" fill="#FE958E"/>
<path d="M70.0915 17.3549C70.0721 18.1491 69.7428 18.9043 69.1739 19.4591C68.605 20.0139 67.8416 20.3243 67.0468 20.3241C66.259 20.3241 65.5035 20.0112 64.9464 19.4544C64.3894 18.8976 64.0764 18.1424 64.0764 17.3549V3.04341C64.0665 2.64729 64.136 2.2532 64.2809 1.88435C64.4257 1.5155 64.6429 1.17936 64.9197 0.895731C65.1965 0.612106 65.5273 0.386738 65.8926 0.232902C66.2579 0.0790662 66.6504 -0.000123701 67.0468 1.45039e-07C67.8543 1.45039e-07 68.6287 0.320648 69.1997 0.891398C69.7707 1.46215 70.0915 2.23625 70.0915 3.04341V17.3549Z" fill="#425AC2"/>
<path d="M211.615 17.3549C211.597 18.1364 211.278 18.8807 210.724 19.4335C210.171 19.9863 209.427 20.3052 208.645 20.3241C207.85 20.3243 207.087 20.0139 206.518 19.4591C205.949 18.9043 205.62 18.1491 205.6 17.3549V3.04341C205.6 2.23625 205.921 1.46215 206.492 0.891398C207.063 0.320648 207.837 0 208.645 0C209.44 0.0193772 210.195 0.348559 210.75 0.917223C211.305 1.48589 211.616 2.24895 211.615 3.04341V17.3549Z" fill="#425AC2"/>
</svg>
